# 3ds Max Wavefront OBJ Exporter v0.97b - (c)2007 guruware
# 创建的文件:06.06.2021 17:44:31

mtllib desk.mtl

#
# object Box005
#

v  -0.0504 0.0000 -0.4787
v  -0.0504 0.0000 -0.4987
v  -0.0304 0.0000 -0.4987
v  -0.0304 0.0000 -0.4787
v  -0.0504 0.8000 -0.4787
v  -0.0304 0.8000 -0.4787
v  -0.0304 0.8000 -0.4987
v  -0.0504 0.8000 -0.4987
v  -1.3494 0.8000 0.5000
v  -1.3494 0.8000 -0.5000
v  -0.0494 0.8000 -0.5000
v  -0.0494 0.8000 0.5000
v  -1.3494 0.8500 0.5000
v  -0.0494 0.8500 0.5000
v  -0.0494 0.8500 -0.5000
v  -1.3494 0.8500 -0.5000
v  -0.0690 0.0000 0.5000
v  -0.0690 0.0000 0.4800
v  -0.0490 0.0000 0.4800
v  -0.0490 0.0000 0.5000
v  -0.0690 0.8000 0.5000
v  -0.0490 0.8000 0.5000
v  -0.0490 0.8000 0.4800
v  -0.0690 0.8000 0.4800
v  -0.0690 0.0000 -0.4797
v  -0.0690 0.0000 -0.4997
v  -0.0490 0.0000 -0.4997
v  -0.0490 0.0000 -0.4797
v  -0.0690 0.8000 -0.4797
v  -0.0490 0.8000 -0.4797
v  -0.0490 0.8000 -0.4997
v  -0.0690 0.8000 -0.4997
v  -1.3488 0.0000 0.5000
v  -1.3488 0.0000 0.4800
v  -1.3288 0.0000 0.4800
v  -1.3288 0.0000 0.5000
v  -1.3488 0.8000 0.5000
v  -1.3288 0.8000 0.5000
v  -1.3288 0.8000 0.4800
v  -1.3488 0.8000 0.4800
v  -1.3488 0.0000 -0.4787
v  -1.3488 0.0000 -0.4987
v  -1.3288 0.0000 -0.4987
v  -1.3288 0.0000 -0.4787
v  -1.3488 0.8000 -0.4787
v  -1.3288 0.8000 -0.4787
v  -1.3288 0.8000 -0.4987
v  -1.3488 0.8000 -0.4987
v  -0.0510 0.8000 0.5000
v  -0.0510 0.8000 -0.5000
v  1.2490 0.8000 -0.5000
v  1.2490 0.8000 0.5000
v  -0.0510 0.8500 0.5000
v  1.2490 0.8500 0.5000
v  1.2490 0.8500 -0.5000
v  -0.0510 0.8500 -0.5000
v  1.2293 0.0000 0.5000
v  1.2293 0.0000 0.4800
v  1.2493 0.0000 0.4800
v  1.2493 0.0000 0.5000
v  1.2293 0.8000 0.5000
v  1.2493 0.8000 0.5000
v  1.2493 0.8000 0.4800
v  1.2293 0.8000 0.4800
v  1.2293 0.0000 -0.4797
v  1.2293 0.0000 -0.4997
v  1.2493 0.0000 -0.4997
v  1.2493 0.0000 -0.4797
v  1.2293 0.8000 -0.4797
v  1.2493 0.8000 -0.4797
v  1.2493 0.8000 -0.4997
v  1.2293 0.8000 -0.4997
v  -0.0504 0.0000 0.5000
v  -0.0504 0.0000 0.4800
v  -0.0304 0.0000 0.4800
v  -0.0304 0.0000 0.5000
v  -0.0504 0.8000 0.5000
v  -0.0304 0.8000 0.5000
v  -0.0304 0.8000 0.4800
v  -0.0504 0.8000 0.4800
# 80 vertices

vn -0.5774 -0.5774 0.5774
vn -0.5774 -0.5774 -0.5774
vn 0.5774 -0.5774 -0.5774
vn 0.5774 -0.5774 0.5774
vn -0.5774 0.5774 0.5774
vn 0.5774 0.5774 0.5774
vn 0.5774 0.5774 -0.5774
vn -0.5774 0.5774 -0.5774
# 8 vertex normals

vt 1.0000 0.0000 0.0000
vt 1.0000 1.0000 0.0000
vt 0.0000 1.0000 0.0000
vt 0.0000 0.0000 0.0000
# 4 texture coords

o Box005
g Box005
usemtl wire_177027088
s 2
f 1/1/1 2/2/2 3/3/3 4/4/4 
s 4
f 5/4/5 6/1/6 7/2/7 8/3/8 
s 8
f 1/4/1 4/1/4 6/2/6 5/3/5 
s 16
f 4/4/4 3/1/3 7/2/7 6/3/6 
s 32
f 3/4/3 2/1/2 8/2/8 7/3/7 
s 64
f 2/4/2 1/1/1 5/2/5 8/3/8 
s 2
f 9/1/1 10/2/2 11/3/3 12/4/4 
s 4
f 13/4/5 14/1/6 15/2/7 16/3/8 
s 8
f 9/4/1 12/1/4 14/2/6 13/3/5 
s 16
f 12/4/4 11/1/3 15/2/7 14/3/6 
s 32
f 11/4/3 10/1/2 16/2/8 15/3/7 
s 64
f 10/4/2 9/1/1 13/2/5 16/3/8 
s 2
f 17/1/1 18/2/2 19/3/3 20/4/4 
s 4
f 21/4/5 22/1/6 23/2/7 24/3/8 
s 8
f 17/4/1 20/1/4 22/2/6 21/3/5 
s 16
f 20/4/4 19/1/3 23/2/7 22/3/6 
s 32
f 19/4/3 18/1/2 24/2/8 23/3/7 
s 64
f 18/4/2 17/1/1 21/2/5 24/3/8 
s 2
f 25/1/1 26/2/2 27/3/3 28/4/4 
s 4
f 29/4/5 30/1/6 31/2/7 32/3/8 
s 8
f 25/4/1 28/1/4 30/2/6 29/3/5 
s 16
f 28/4/4 27/1/3 31/2/7 30/3/6 
s 32
f 27/4/3 26/1/2 32/2/8 31/3/7 
s 64
f 26/4/2 25/1/1 29/2/5 32/3/8 
s 2
f 33/1/1 34/2/2 35/3/3 36/4/4 
s 4
f 37/4/5 38/1/6 39/2/7 40/3/8 
s 8
f 33/4/1 36/1/4 38/2/6 37/3/5 
s 16
f 36/4/4 35/1/3 39/2/7 38/3/6 
s 32
f 35/4/3 34/1/2 40/2/8 39/3/7 
s 64
f 34/4/2 33/1/1 37/2/5 40/3/8 
s 2
f 41/1/1 42/2/2 43/3/3 44/4/4 
s 4
f 45/4/5 46/1/6 47/2/7 48/3/8 
s 8
f 41/4/1 44/1/4 46/2/6 45/3/5 
s 16
f 44/4/4 43/1/3 47/2/7 46/3/6 
s 32
f 43/4/3 42/1/2 48/2/8 47/3/7 
s 64
f 42/4/2 41/1/1 45/2/5 48/3/8 
s 2
f 49/1/1 50/2/2 51/3/3 52/4/4 
s 4
f 53/4/5 54/1/6 55/2/7 56/3/8 
s 8
f 49/4/1 52/1/4 54/2/6 53/3/5 
s 16
f 52/4/4 51/1/3 55/2/7 54/3/6 
s 32
f 51/4/3 50/1/2 56/2/8 55/3/7 
s 64
f 50/4/2 49/1/1 53/2/5 56/3/8 
s 2
f 57/1/1 58/2/2 59/3/3 60/4/4 
s 4
f 61/4/5 62/1/6 63/2/7 64/3/8 
s 8
f 57/4/1 60/1/4 62/2/6 61/3/5 
s 16
f 60/4/4 59/1/3 63/2/7 62/3/6 
s 32
f 59/4/3 58/1/2 64/2/8 63/3/7 
s 64
f 58/4/2 57/1/1 61/2/5 64/3/8 
s 2
f 65/1/1 66/2/2 67/3/3 68/4/4 
s 4
f 69/4/5 70/1/6 71/2/7 72/3/8 
s 8
f 65/4/1 68/1/4 70/2/6 69/3/5 
s 16
f 68/4/4 67/1/3 71/2/7 70/3/6 
s 32
f 67/4/3 66/1/2 72/2/8 71/3/7 
s 64
f 66/4/2 65/1/1 69/2/5 72/3/8 
s 2
f 73/1/1 74/2/2 75/3/3 76/4/4 
s 4
f 77/4/5 78/1/6 79/2/7 80/3/8 
s 8
f 73/4/1 76/1/4 78/2/6 77/3/5 
s 16
f 76/4/4 75/1/3 79/2/7 78/3/6 
s 32
f 75/4/3 74/1/2 80/2/8 79/3/7 
s 64
f 74/4/2 73/1/1 77/2/5 80/3/8 
# 60 polygons

